<mxfile host="Electron" modified="2024-04-14T00:11:08.468Z" agent="Mozilla/5.0 (Windows NT 10.0; Win64; x64) AppleWebKit/537.36 (KHTML, like Gecko) draw.io/24.2.5 Chrome/120.0.6099.109 Electron/28.1.0 Safari/537.36" etag="Y2ZiXYn1Yex2nY8AS3oj" version="24.2.5" type="device">
  <diagram name="Página-1" id="N7Nq6IEGa5N9Fs7NV6CS">
    <mxGraphModel dx="1050" dy="621" grid="1" gridSize="10" guides="1" tooltips="1" connect="1" arrows="1" fold="1" page="1" pageScale="1" pageWidth="827" pageHeight="1169" math="0" shadow="0">
      <root>
        <mxCell id="0" />
        <mxCell id="1" parent="0" />
        <mxCell id="pmip8-NqUzVJasgl7USa-1" value="" style="whiteSpace=wrap;html=1;aspect=fixed;" vertex="1" parent="1">
          <mxGeometry x="240" y="160" width="290" height="290" as="geometry" />
        </mxCell>
        <mxCell id="pmip8-NqUzVJasgl7USa-2" value="&lt;b&gt;Nova Tarefa&lt;/b&gt;" style="rounded=0;whiteSpace=wrap;html=1;" vertex="1" parent="1">
          <mxGeometry x="240" y="160" width="290" height="30" as="geometry" />
        </mxCell>
        <mxCell id="pmip8-NqUzVJasgl7USa-3" value="&lt;b&gt;Descrição&lt;/b&gt;" style="rounded=0;whiteSpace=wrap;html=1;" vertex="1" parent="1">
          <mxGeometry x="240" y="190" width="290" height="30" as="geometry" />
        </mxCell>
        <mxCell id="pmip8-NqUzVJasgl7USa-4" value="&lt;b&gt;Prioridade&lt;/b&gt;" style="rounded=0;whiteSpace=wrap;html=1;" vertex="1" parent="1">
          <mxGeometry x="240" y="220" width="220" height="90" as="geometry" />
        </mxCell>
        <mxCell id="pmip8-NqUzVJasgl7USa-5" value="&lt;b&gt;Alta&lt;/b&gt;" style="rounded=0;whiteSpace=wrap;html=1;" vertex="1" parent="1">
          <mxGeometry x="460" y="220" width="70" height="30" as="geometry" />
        </mxCell>
        <mxCell id="pmip8-NqUzVJasgl7USa-6" value="&lt;b&gt;Media&lt;/b&gt;" style="rounded=0;whiteSpace=wrap;html=1;" vertex="1" parent="1">
          <mxGeometry x="460" y="250" width="70" height="30" as="geometry" />
        </mxCell>
        <mxCell id="pmip8-NqUzVJasgl7USa-7" value="&lt;b&gt;Baixa&lt;/b&gt;" style="rounded=0;whiteSpace=wrap;html=1;" vertex="1" parent="1">
          <mxGeometry x="460" y="280" width="70" height="30" as="geometry" />
        </mxCell>
        <mxCell id="pmip8-NqUzVJasgl7USa-8" value="&lt;b&gt;Tipo&lt;/b&gt;" style="rounded=0;whiteSpace=wrap;html=1;" vertex="1" parent="1">
          <mxGeometry x="240" y="310" width="110" height="90" as="geometry" />
        </mxCell>
        <mxCell id="pmip8-NqUzVJasgl7USa-9" value="&lt;b&gt;Data&lt;/b&gt;" style="rounded=0;whiteSpace=wrap;html=1;" vertex="1" parent="1">
          <mxGeometry x="350" y="310" width="70" height="30" as="geometry" />
        </mxCell>
        <mxCell id="pmip8-NqUzVJasgl7USa-10" value="&lt;b&gt;Prazo&lt;/b&gt;" style="rounded=0;whiteSpace=wrap;html=1;" vertex="1" parent="1">
          <mxGeometry x="350" y="340" width="70" height="30" as="geometry" />
        </mxCell>
        <mxCell id="pmip8-NqUzVJasgl7USa-11" value="&lt;b&gt;Livre&lt;/b&gt;" style="rounded=0;whiteSpace=wrap;html=1;" vertex="1" parent="1">
          <mxGeometry x="350" y="370" width="70" height="30" as="geometry" />
        </mxCell>
        <mxCell id="pmip8-NqUzVJasgl7USa-12" value="&lt;b&gt;Data de Vencimento&lt;/b&gt;" style="rounded=0;whiteSpace=wrap;html=1;" vertex="1" parent="1">
          <mxGeometry x="420" y="310" width="110" height="30" as="geometry" />
        </mxCell>
        <mxCell id="pmip8-NqUzVJasgl7USa-13" value="&lt;b&gt;Prazo em Dias&lt;/b&gt;" style="rounded=0;whiteSpace=wrap;html=1;" vertex="1" parent="1">
          <mxGeometry x="420" y="340" width="110" height="30" as="geometry" />
        </mxCell>
        <mxCell id="pmip8-NqUzVJasgl7USa-14" value="&lt;b&gt;Adicionar Tarefa&lt;/b&gt;" style="rounded=0;whiteSpace=wrap;html=1;" vertex="1" parent="1">
          <mxGeometry x="420" y="370" width="110" height="30" as="geometry" />
        </mxCell>
      </root>
    </mxGraphModel>
  </diagram>
</mxfile>
